<?xml version="1.0" encoding="UTF-8"?> <svg xmlns="http://www.w3.org/2000/svg" width="125" height="35" viewBox="0 0 125 35" fill="none"><path d="M13.3559 14.8569C13.3294 14.8569 13.3273 14.5211 13.1581 14.3523C11.8651 13.0562 10.3987 12.7917 8.58156 13.044C4.91873 13.5526 3.89288 18.8896 5.63865 21.6404C7.69033 24.8735 13.7821 24.6721 14.5796 20.5539H8.86913V17.095H18.8624V21.8764C18.8624 23.9538 14.7876 26.9712 12.8991 27.5247C4.32933 30.0334 -2.49465 22.322 0.880628 14.1081C3.92144 6.70601 16.7189 6.57783 18.4565 14.8569H13.3559Z" fill="#F7941D"></path><path d="M85.9601 27.8787C85.8805 27.7993 86.0192 26.1859 85.958 25.8461C85.6379 25.8807 85.646 26.314 85.3605 26.5684C80.4597 30.9205 74.527 26.078 74.527 20.2507C74.527 13.7317 80.994 9.7641 85.958 14.6554C86.0294 14.4275 85.8683 12.8242 85.9601 12.8242H90.6508V27.8807C90.0104 27.7566 86.1253 28.0455 85.9601 27.8807V27.8787ZM81.6222 16.7349C78.5508 17.3656 78.5141 23.5489 82.2055 23.9966C87.251 24.6049 87.3041 15.567 81.6222 16.7349Z" fill="#2B3990"></path><path d="M63.3223 20.9608V27.8787H58.6315V8.75288H67.0952C67.3685 8.75288 68.8675 9.14353 69.2305 9.26765C74.2496 10.9829 74.5677 18.2486 69.7853 20.3911C67.6153 21.3637 65.6126 21.0768 63.3223 20.9629V20.9608ZM63.3223 17.2985H66.8913C67.6234 17.2985 68.4555 15.7196 68.429 14.9647C68.3964 13.9799 67.5215 12.6187 66.4834 12.6187H63.3223V17.2985Z" fill="#2B3990"></path><path d="M97.5849 12.8222L101.05 21.9782L104.417 12.8222H109.21L100.032 35H94.9336L98.105 27.8828L98.1906 27.193L92.2824 12.8222H97.5849Z" fill="#2B3990"></path><path d="M26.5593 12.6676C30.5117 12.0531 34.7333 13.5872 35.9346 17.6627C37.6151 23.3699 33.7503 28.485 27.7279 28.0883C18.3342 27.4718 18.4137 13.9311 26.5613 12.6676H26.5593ZM28.201 16.5273C24.5055 16.8142 24.4097 23.3109 27.5769 23.966C32.7714 25.0383 32.8244 16.1692 28.201 16.5273Z" fill="#F7941D"></path><path d="M42.316 12.8222L45.3772 23.199L48.6383 12.8222H53.7369L48.1366 27.8929C47.1699 27.7037 43.1114 28.1839 42.6158 27.6813L37.4213 12.8222H42.316Z" fill="#F7941D"></path><path d="M110.178 0.0445313C111.973 -0.327812 116.382 1.7272 117.963 2.76894C118.799 3.32033 123.484 6.73856 120.894 7.49546C119.845 7.80269 118.866 6.14444 118.077 5.50353C116.737 4.41702 114.89 3.3183 113.246 2.79539C112.361 2.51257 110.562 2.35794 109.948 2.01612C109.112 1.55018 109.149 0.258171 110.178 0.0445313Z" fill="#F58220"></path><path d="M111.398 4.31121C112.371 4.03654 116.644 6.15055 116.919 7.06614C117.204 8.0143 116.646 8.70608 115.683 8.51889C115.44 8.4721 113.148 7.03359 112.55 6.74467C112.11 6.53103 111.527 6.52086 111.17 6.29094C110.395 5.79245 110.515 4.56148 111.4 4.31325L111.398 4.31121Z" fill="#F58220"></path><path d="M119.442 11.8496C119.486 11.5688 123.461 16.6636 124.777 19.0035C125.011 19.4206 125.062 19.9171 124.924 20.3749C124.687 21.1562 124.087 22.1186 122.892 23.7422C121.316 25.8827 114.514 33.1363 101.988 34.7965L105.267 26.7088C105.267 26.7088 116.042 25.0648 119.442 11.8496Z" fill="#A5C05F"></path><path d="M109.993 7.92274C109.993 7.92274 116.095 10.9401 116.79 11.4671C117.488 11.9921 117.386 13.7398 117.284 14.3828C117.182 15.0257 116.382 23.319 106.611 25.7606C106.611 25.7606 114.498 20.2324 109.993 7.92274Z" fill="#A5C05F"></path></svg> 